<?xml version="1.0" encoding="UTF-8" standalone="no"?>
<!DOCTYPE svg PUBLIC "-//W3C//DTD SVG 1.1//EN" "http://www.w3.org/Graphics/SVG/1.1/DTD/svg11.dtd">
<svg width="100%" height="100%" viewBox="0 0 64 64" version="1.1" xmlns="http://www.w3.org/2000/svg" xmlns:xlink="http://www.w3.org/1999/xlink" xml:space="preserve" xmlns:serif="http://www.serif.com/" style="fill-rule:evenodd;clip-rule:evenodd;">
    <ellipse cx="32" cy="50" rx="20" ry="6" style="fill:rgb(45,136,244);stroke:rgb(44,53,61);stroke-width:1.5px;"/>
    <g transform="matrix(0.95828,0,0,0.950154,1.24165,2.91743)">
        <rect x="12" y="34" width="40" height="16" style="fill:rgb(45,136,244);"/>
    </g>
    <ellipse cx="32" cy="42" rx="20" ry="6" style="fill:rgb(74,144,226);stroke:rgb(44,53,61);stroke-width:1.5px;"/>
    <g transform="matrix(0.956297,0,0,1.04737,1.47541,-1.42913)">
        <rect x="12" y="26" width="40" height="16" style="fill:rgb(74,144,226);"/>
    </g>
    <ellipse cx="32" cy="34" rx="20" ry="6" style="fill:rgb(91,160,242);stroke:rgb(44,53,61);stroke-width:1.5px;"/>
    <g transform="matrix(0.96279,0,0,1,1.21486,-0.113024)">
        <rect x="12" y="18" width="40" height="16" style="fill:rgb(91,160,242);"/>
    </g>
    <ellipse cx="32" cy="26" rx="20" ry="6" style="fill:rgb(149,197,255);stroke:rgb(44,53,61);stroke-width:1.5px;"/>
    <g transform="matrix(0.96279,0,0,0.500094,1.21486,8.88529)">
        <rect x="12" y="18" width="40" height="16" style="fill:rgb(149,197,255);"/>
    </g>
    <ellipse cx="32" cy="18" rx="20" ry="6" style="fill:rgb(197,227,255);stroke:rgb(44,53,61);stroke-width:1.5px;"/>
</svg>
